<?xml version="1.0" encoding="UTF-8" standalone="no"?>
<svg width="388px" height="148px" viewBox="0 0 388 148" version="1.1" xmlns="http://www.w3.org/2000/svg" xmlns:xlink="http://www.w3.org/1999/xlink">
    <!-- Generator: Sketch 41.1 (35376) - http://www.bohemiancoding.com/sketch -->
    <title>RAMAN-LOGO-LOCATION</title>
    <desc>Created with Sketch.</desc>
    <defs></defs>
    <g id="Page-1" stroke="none" stroke-width="1" fill="none" fill-rule="evenodd">
        <g id="Raman-Website" transform="translate(-853.000000, -9135.000000)">
            <g id="LOCATION" transform="translate(-104.000000, 1977.000000)">
                <g id="RAMAN-LOGO-LOCATION" transform="translate(958.000000, 7158.000000)">
                    <g id="Layer_1">
                        <path d="M221.488719,15.0693467 C225.252772,16.8422111 222.152964,73.721608 184.291013,84.7281407 C147.019503,95.5130653 114.250096,50.7482412 116.316635,47.4241206 C118.087954,44.5432161 146.724283,71.4316583 176.615296,63.0844221 C207.760994,54.2939698 218.167495,13.5180905 221.488719,15.0693467 L221.488719,15.0693467 Z" id="XMLID_8_" fill="#FFFFFF"></path>
                        <path d="M198.535373,23.9336683 C201.782792,25.9281407 195.952199,55.4758794 175.065392,65.4482412 C148.495602,78.0798995 115.20956,50.6743719 116.316635,47.5718593 C117.276099,44.9864322 141.115105,59.6864322 166.356405,50.1572864 C187.686042,42.179397 195.656979,22.2346734 198.535373,23.9336683 L198.535373,23.9336683 Z" id="XMLID_6_" fill="#FFFFFF"></path>
                        <path d="M247.689484,0.590954774 C252.117782,2.51155779 248.279924,83.6201005 197.428298,95.2914573 C152.407266,105.559296 113.659656,51.4130653 116.316635,47.4241206 C118.604589,43.9522613 152.554876,77.5628141 188.571702,68.4768844 C229.902486,57.9874372 243.77782,-1.1080402 247.689484,0.590954774 L247.689484,0.590954774 Z" id="XMLID_5_" fill="#FFFFFF"></path>
                        <g id="Group" transform="translate(53.877629, 101.201005)" fill="#808285">
                            <path d="M0.442829828,24.1552764 C0.664244742,23.4904523 0.811854685,22.8994975 0.959464627,22.2346734 C1.10707457,21.5698492 1.18087954,20.9788945 1.25468451,20.3140704 C1.77131931,21.6437186 2.583174,22.6778894 3.61644359,23.4904523 C4.64971319,24.2291457 5.83059273,24.5984925 7.15908222,24.5984925 C8.70898662,24.5984925 9.96367113,24.1552764 10.8493308,23.1949749 C11.8087954,22.2346734 12.2516252,20.9788945 12.2516252,19.3537688 C12.2516252,18.2457286 11.9564054,17.3592965 11.4397706,16.6944724 C10.9231358,16.0296482 9.96367113,15.4386935 8.63518164,14.8477387 L5.75678776,13.5919598 C4.13307839,12.9271357 2.87839388,12.1145729 2.14034417,11.1542714 C1.40229446,10.1939698 1.0332696,9.0120603 1.0332696,7.60854271 C1.0332696,5.61407035 1.69751434,3.91507538 3.0998088,2.65929648 C4.50210325,1.40351759 6.34722753,0.738693467 8.56137667,0.738693467 C9.5208413,0.738693467 10.4803059,0.812562814 11.3659656,1.03417085 C12.2516252,1.25577889 13.1372849,1.55125628 14.0229446,1.99447236 C13.8753346,2.3638191 13.6539197,2.80703518 13.5063098,3.25025126 C13.3586998,3.69346734 13.2110899,4.21055276 12.989675,4.72763819 C12.3254302,3.84120603 11.6611855,3.10251256 10.7755258,2.65929648 C9.96367113,2.2160804 9.0042065,1.99447236 8.04474187,1.99447236 C6.71625239,1.99447236 5.68298279,2.3638191 4.87112811,3.17638191 C4.05927342,3.98894472 3.69024857,5.02311558 3.69024857,6.42663317 C3.69024857,7.46080402 3.98546845,8.27336683 4.50210325,8.93819095 C5.09254302,9.60301508 5.97820268,10.1939698 7.30669216,10.7849246 L10.185086,12.0407035 C11.8826004,12.779397 13.1372849,13.5919598 13.8015296,14.5522613 C14.5395793,15.5125628 14.9086042,16.7683417 14.9086042,18.2457286 C14.9086042,20.5356784 14.0967495,22.4562814 12.5468451,23.859799 C10.9969407,25.2633166 8.93040153,26.0020101 6.34722753,26.0020101 C5.16634799,26.0020101 4.05927342,25.8542714 3.02600382,25.4849246 C2.14034417,25.1894472 1.25468451,24.7462312 0.442829828,24.1552764 L0.442829828,24.1552764 Z" id="Shape"></path>
                            <path d="M17.7131931,25.558794 C18.1560229,23.5643216 18.6726577,20.7572864 19.1892925,16.9899497 C19.7059273,13.2226131 20.4439771,7.75628141 21.4034417,0.664824121 L21.9938815,0.664824121 C24.1342256,4.87537688 25.9793499,8.56884422 27.5292543,11.6713568 C29.0791587,14.7738693 30.6290631,17.5809045 32.0313576,20.1663317 C33.581262,17.4331658 35.2049713,14.4045226 36.9762906,11.3020101 C38.673805,8.12562814 40.5927342,4.5798995 42.6592734,0.738693467 L43.1021033,0.738693467 C43.3973231,3.91507538 43.840153,7.38693467 44.2829828,11.2281407 C44.7258126,15.0693467 45.2424474,19.8708543 45.9804971,25.6326633 C45.6852772,25.558794 45.3900574,25.558794 45.1686424,25.4849246 C44.8734226,25.4849246 44.6520076,25.4110553 44.3567878,25.4110553 C44.1353728,25.4110553 43.840153,25.4110553 43.618738,25.4849246 C43.3235182,25.4849246 43.1021033,25.558794 42.8068834,25.6326633 C42.5116635,21.4221106 42.2164436,17.7286432 41.8474187,14.5522613 C41.4783939,11.3758794 41.183174,9.08592965 40.9617591,7.75628141 C38.7476099,11.4497487 36.8286807,14.921608 35.2049713,18.0979899 C33.581262,21.2743719 32.4741874,23.7859296 31.8099426,25.6326633 L31.2933078,25.6326633 C30.998088,24.6723618 30.6290631,23.638191 30.1124283,22.5301508 C29.5957935,21.4221106 28.8577438,19.9447236 27.8982792,18.1718593 L22.2891013,7.83015075 C21.7724665,11.6713568 21.3296367,15.1432161 21.0344168,18.2457286 C20.7391969,21.3482412 20.591587,23.7859296 20.517782,25.7065327 C20.2963671,25.6326633 20.0749522,25.6326633 19.8535373,25.558794 C19.6321224,25.558794 19.4107075,25.4849246 19.1892925,25.4849246 C18.9678776,25.4849246 18.7464627,25.4849246 18.5250478,25.558794 C18.3036329,25.4849246 18.008413,25.4849246 17.7131931,25.558794 L17.7131931,25.558794 Z" id="Shape"></path>
                            <path d="M51.1468451,25.558794 C51.2206501,24.3768844 51.2944551,23.1211055 51.2944551,21.6437186 C51.2944551,20.1663317 51.36826,18.4673367 51.36826,16.3251256 L51.36826,13.3703518 C51.36826,9.52914573 51.36826,6.86984925 51.2944551,5.24472362 C51.2206501,3.61959799 51.2206501,2.28994975 51.1468451,1.1080402 C51.36826,1.18190955 51.6634799,1.18190955 51.8848948,1.18190955 L52.7705545,1.18190955 L53.6562141,1.18190955 C53.951434,1.18190955 54.1728489,1.1080402 54.4680688,1.1080402 C54.3942639,1.92060302 54.3204589,2.88090452 54.3204589,3.91507538 C54.3204589,5.02311558 54.2466539,6.42663317 54.2466539,8.12562814 L54.2466539,13.3703518 L54.2466539,19.2798995 C54.2466539,21.2005025 54.2466539,22.5301508 54.3204589,23.3427136 C54.3204589,24.1552764 54.3942639,24.8939698 54.4680688,25.558794 C54.2466539,25.4849246 53.951434,25.4849246 53.6562141,25.4849246 L52.7705545,25.4849246 L51.8848948,25.4849246 C51.7372849,25.4849246 51.442065,25.4849246 51.1468451,25.558794 L51.1468451,25.558794 Z" id="Shape"></path>
                            <path d="M60.9629063,25.558794 C61.0367113,23.4904523 61.0367113,21.4221106 61.1105163,19.3537688 C61.1843212,17.3592965 61.1843212,15.2909548 61.1843212,13.2964824 C61.1843212,11.080402 61.1843212,8.93819095 61.1105163,6.94371859 C61.1105163,4.94924623 61.0367113,2.95477387 60.9629063,1.03417085 C61.2581262,1.1080402 61.4795411,1.1080402 61.774761,1.1080402 L62.6604207,1.1080402 L63.5460803,1.1080402 C63.8413002,1.1080402 64.0627151,1.03417085 64.357935,1.03417085 C64.28413,3.39798995 64.210325,5.61407035 64.1365201,7.75628141 C64.0627151,9.89849246 64.0627151,11.8929648 64.0627151,13.7396985 C64.0627151,15.6603015 64.0627151,17.4331658 64.1365201,19.0582915 C64.1365201,20.6834171 64.210325,22.3085427 64.28413,23.7859296 L65.1697897,23.7859296 L66.7196941,23.7859296 C68.2695985,23.7859296 69.6718929,23.7120603 70.8527725,23.638191 C72.033652,23.5643216 73.1407266,23.4165829 74.0263862,23.1949749 L74.0263862,23.7120603 L74.0263862,24.3030151 L74.0263862,24.8201005 L74.0263862,25.4110553 C71.8860421,25.4110553 70.1885277,25.3371859 68.7862333,25.3371859 L65.7602294,25.3371859 L63.3246654,25.3371859 C62.4390057,25.4849246 61.700956,25.558794 60.9629063,25.558794 L60.9629063,25.558794 Z" id="Shape"></path>
                            <path d="M78.4546845,25.558794 C78.6022945,24.081407 78.6760994,22.3085427 78.6760994,20.3140704 C78.7499044,18.319598 78.7499044,15.8819095 78.7499044,13.0748744 C78.7499044,10.4894472 78.7499044,8.19949749 78.6760994,6.27889447 C78.6022945,4.35829146 78.5284895,2.58542714 78.4546845,1.1080402 C78.9713193,1.1080402 79.4879541,1.18190955 80.0783939,1.18190955 L82.8829828,1.18190955 L87.2374761,1.18190955 C88.4921606,1.18190955 89.8206501,1.18190955 91.0753346,1.1080402 L91.0753346,1.62512563 L91.0753346,2.14221106 L91.0753346,2.65929648 L91.0753346,3.17638191 C89.7468451,3.02864322 88.3445507,2.95477387 86.9422562,2.88090452 C85.5399618,2.80703518 84.0638623,2.80703518 82.5877629,2.80703518 L81.7021033,2.80703518 L81.7021033,6.7959799 L81.7021033,10.4155779 L81.7021033,11.8190955 L82.366348,11.8190955 C83.4734226,11.8190955 84.6543021,11.8190955 85.9827916,11.7452261 C87.3112811,11.6713568 88.7135755,11.5974874 90.189675,11.5236181 C90.189675,11.7452261 90.11587,11.9668342 90.11587,12.1884422 L90.11587,12.6316583 L90.11587,13.0748744 C90.11587,13.2226131 90.11587,13.4442211 90.189675,13.6658291 C89.5992352,13.5919598 88.9349904,13.5180905 88.0493308,13.4442211 C87.1636711,13.3703518 85.6137667,13.3703518 83.3996176,13.3703518 L81.7759082,13.3703518 L81.7759082,15.0693467 L81.7759082,20.018593 L81.7759082,23.7859296 L82.6615679,23.7859296 C83.6948375,23.7859296 84.949522,23.7859296 86.4256214,23.7120603 C87.9017208,23.638191 89.5254302,23.5643216 91.2229446,23.4165829 L91.2229446,23.9336683 L91.2229446,24.4507538 L91.2229446,24.9678392 L91.2229446,25.4849246 C90.5586998,25.4849246 89.8206501,25.4110553 88.9349904,25.4110553 L85.0971319,25.4110553 L81.0378585,25.4110553 C80.1521989,25.558794 79.2665392,25.558794 78.4546845,25.558794 L78.4546845,25.558794 Z" id="Shape"></path>
                            <path d="M94.5441683,24.1552764 C94.7655832,23.4904523 94.9131931,22.8994975 95.0608031,22.2346734 C95.208413,21.5698492 95.282218,20.9788945 95.3560229,20.3140704 C95.8726577,21.6437186 96.6845124,22.6778894 97.717782,23.4904523 C98.7510516,24.2291457 99.9319312,24.5984925 101.260421,24.5984925 C102.810325,24.5984925 104.06501,24.1552764 104.950669,23.1949749 C105.910134,22.2346734 106.352964,20.9788945 106.352964,19.3537688 C106.352964,18.2457286 106.057744,17.3592965 105.541109,16.6944724 C105.024474,16.0296482 104.06501,15.4386935 102.73652,14.8477387 L99.8581262,13.5919598 C98.2344168,12.9271357 96.9797323,12.1145729 96.2416826,11.1542714 C95.5036329,10.1939698 95.134608,9.0120603 95.134608,7.60854271 C95.134608,5.61407035 95.7988528,3.91507538 97.2011472,2.65929648 C98.6034417,1.40351759 100.448566,0.738693467 102.662715,0.738693467 C103.62218,0.738693467 104.581644,0.812562814 105.467304,1.03417085 C106.352964,1.25577889 107.238623,1.55125628 108.124283,1.99447236 C107.976673,2.3638191 107.755258,2.80703518 107.607648,3.25025126 C107.460038,3.69346734 107.312428,4.21055276 107.091013,4.72763819 C106.426769,3.84120603 105.762524,3.10251256 104.876864,2.65929648 C104.06501,2.2160804 103.105545,1.99447236 102.14608,1.99447236 C100.817591,1.99447236 99.7843212,2.3638191 98.9724665,3.17638191 C98.1606119,3.98894472 97.791587,5.02311558 97.791587,6.42663317 C97.791587,7.46080402 98.0868069,8.27336683 98.6034417,8.93819095 C99.1938815,9.60301508 100.079541,10.1939698 101.408031,10.7849246 L104.286424,12.0407035 C105.983939,12.779397 107.238623,13.5919598 107.902868,14.5522613 C108.640918,15.5125628 109.009943,16.7683417 109.009943,18.2457286 C109.009943,20.5356784 108.198088,22.4562814 106.648184,23.859799 C105.098279,25.2633166 103.03174,26.0020101 100.448566,26.0020101 C99.2676864,26.0020101 98.1606119,25.8542714 97.1273423,25.4849246 C96.2416826,25.1894472 95.3560229,24.7462312 94.5441683,24.1552764 L94.5441683,24.1552764 Z" id="Shape"></path>
                            <path d="M122.221033,25.558794 C122.221033,24.8939698 122.294837,24.1552764 122.294837,23.3427136 L122.294837,19.2798995 L122.294837,15.5864322 L122.294837,12.1145729 L122.294837,8.56884422 C122.294837,7.83015075 122.294837,7.23919598 122.221033,6.72211055 C122.368642,6.72211055 122.590057,6.7959799 122.737667,6.7959799 L123.328107,6.7959799 L123.844742,6.7959799 C123.992352,6.7959799 124.213767,6.72211055 124.361377,6.72211055 C124.287572,7.97788945 124.213767,9.08592965 124.213767,10.1939698 C124.213767,11.3020101 124.139962,12.3361809 124.139962,13.3703518 L124.139962,14.5522613 L124.139962,15.8080402 C124.656597,14.9954774 125.247036,14.478392 125.911281,14.1090452 C126.575526,13.7396985 127.313576,13.5919598 128.199235,13.5919598 C129.74914,13.5919598 131.003824,14.1090452 131.889484,15.1432161 C132.775143,16.1773869 133.291778,17.5809045 133.291778,19.2798995 C133.291778,21.2743719 132.775143,22.8256281 131.741874,24.081407 C130.708604,25.2633166 129.380115,25.9281407 127.756405,25.9281407 C127.092161,25.9281407 126.427916,25.780402 125.837476,25.558794 C125.247036,25.3371859 124.656597,24.8939698 124.066157,24.3768844 C123.844742,24.5246231 123.623327,24.7462312 123.401912,24.9678392 C123.180497,25.1894472 122.959082,25.4110553 122.737667,25.7065327 L122.221033,25.7065327 L122.221033,25.558794 Z M127.6826,14.478392 C126.501721,14.478392 125.616061,14.9954774 124.951816,15.9557789 C124.287572,16.9160804 123.992352,18.319598 123.992352,20.1663317 C123.992352,21.7175879 124.287572,22.8994975 124.878011,23.7120603 C125.468451,24.5246231 126.280306,24.8939698 127.461185,24.8939698 C128.642065,24.8939698 129.60153,24.3768844 130.265774,23.4165829 C130.930019,22.4562814 131.225239,21.0527638 131.225239,19.2798995 C131.225239,17.7286432 130.930019,16.4728643 130.339579,15.7341709 C129.675335,14.921608 128.789675,14.478392 127.6826,14.478392 L127.6826,14.478392 Z" id="Shape"></path>
                            <path d="M136.096367,32.4286432 C136.908222,31.098995 137.720076,29.3261307 138.679541,27.2577889 C138.753346,27.0361809 138.827151,26.9623116 138.827151,26.8145729 L139.417591,25.4849246 L138.384321,22.7517588 C138.162906,22.160804 137.720076,21.0527638 136.982027,19.3537688 C136.243977,17.6547739 135.432122,15.8080402 134.472658,13.7396985 C134.694073,13.8135678 134.841683,13.8135678 135.063098,13.8135678 L135.727342,13.8135678 L136.391587,13.8135678 C136.613002,13.8135678 136.760612,13.7396985 136.982027,13.7396985 C137.203442,14.478392 137.572467,15.5125628 138.015296,16.7683417 C138.458126,18.0241206 139.048566,19.4276382 139.712811,21.0527638 L140.59847,23.1949749 L141.48413,21.1266332 C142.07457,19.7231156 142.66501,18.3934673 143.107839,17.1376884 C143.550669,15.8819095 143.993499,14.7738693 144.288719,13.7396985 C144.436329,13.7396985 144.510134,13.8135678 144.657744,13.8135678 L145.100574,13.8135678 L145.543403,13.8135678 C145.691013,13.8135678 145.838623,13.7396985 145.912428,13.7396985 C145.617208,14.4045226 145.248184,15.0693467 144.879159,15.8819095 C144.510134,16.6944724 144.067304,17.7286432 143.550669,18.9105528 L140.155641,26.5190955 C139.417591,28.2180905 138.900956,29.4738693 138.605736,30.2864322 C138.310516,31.098995 138.089101,31.8376884 137.941491,32.4286432 C137.793881,32.4286432 137.646272,32.3547739 137.498662,32.3547739 L137.055832,32.3547739 L136.613002,32.3547739 C136.391587,32.3547739 136.243977,32.4286432 136.096367,32.4286432 L136.096367,32.4286432 Z" id="Shape"></path>
                            <path d="M158.902103,25.558794 C158.975908,24.2291457 158.975908,22.6778894 159.049713,21.0527638 L159.049713,13.3703518 L159.049713,5.54020101 C159.049713,3.91507538 158.975908,2.43768844 158.975908,1.1080402 C159.566348,1.1080402 160.009178,1.18190955 160.452008,1.18190955 L161.632887,1.18190955 C162.075717,1.18190955 163.108987,1.18190955 164.658891,1.1080402 C166.208795,1.03417085 167.537285,1.03417085 168.570554,1.03417085 C170.637094,1.03417085 172.260803,1.18190955 173.441683,1.40351759 C174.622562,1.69899497 175.655832,2.14221106 176.615296,2.73316583 C178.091396,3.76733668 179.19847,5.09698492 180.010325,6.7959799 C180.82218,8.49497487 181.191205,10.4155779 181.191205,12.6316583 C181.191205,16.8422111 180.010325,20.0924623 177.574761,22.3085427 C175.139197,24.5246231 171.670363,25.6326633 167.094455,25.6326633 C166.57782,25.6326633 165.692161,25.6326633 164.511281,25.558794 C163.330402,25.4849246 162.444742,25.4849246 161.854302,25.4849246 L160.599618,25.4849246 C159.861568,25.558794 159.271128,25.558794 158.902103,25.558794 L158.902103,25.558794 Z M162.149522,24.0075377 C162.887572,24.081407 163.625621,24.081407 164.216061,24.1552764 C164.806501,24.1552764 165.396941,24.2291457 165.913576,24.2291457 C169.899044,24.2291457 172.777438,23.3427136 174.770172,21.4959799 C176.689101,19.7231156 177.648566,16.9899497 177.648566,13.2964824 C177.648566,9.45527638 176.836711,6.72211055 175.286807,4.94924623 C173.736902,3.25025126 171.153728,2.3638191 167.537285,2.3638191 C166.57782,2.3638191 165.618356,2.3638191 164.732696,2.43768844 C163.847036,2.43768844 163.035182,2.51155779 162.149522,2.58542714 C162.075717,4.06281407 162.075717,5.61407035 162.001912,7.23919598 L162.001912,12.4100503 L162.001912,18.6150754 C162.001912,20.5356784 162.075717,22.3085427 162.149522,24.0075377 L162.149522,24.0075377 Z" id="Shape"></path>
                            <path d="M185.914723,25.558794 C186.062333,24.081407 186.136138,22.3085427 186.136138,20.3140704 C186.209943,18.319598 186.209943,15.8819095 186.209943,13.0748744 C186.209943,10.4894472 186.209943,8.19949749 186.136138,6.27889447 C186.062333,4.35829146 185.988528,2.58542714 185.914723,1.1080402 C186.431358,1.1080402 186.947992,1.18190955 187.538432,1.18190955 L190.343021,1.18190955 L194.697514,1.18190955 C195.952199,1.18190955 197.280688,1.18190955 198.535373,1.1080402 L198.535373,1.62512563 L198.535373,2.14221106 L198.535373,2.65929648 L198.535373,3.17638191 C197.206883,3.02864322 195.804589,2.95477387 194.402294,2.88090452 C193,2.80703518 191.523901,2.80703518 190.047801,2.80703518 L189.162141,2.80703518 L189.162141,6.7959799 L189.162141,10.4155779 L189.162141,11.8190955 L189.826386,11.8190955 C190.933461,11.8190955 192.11434,11.8190955 193.44283,11.7452261 C194.771319,11.6713568 196.173614,11.5974874 197.649713,11.5236181 C197.649713,11.7452261 197.575908,11.9668342 197.575908,12.1884422 L197.575908,12.6316583 L197.575908,13.0748744 C197.575908,13.2226131 197.575908,13.4442211 197.649713,13.6658291 C197.059273,13.5919598 196.395029,13.5180905 195.509369,13.4442211 C194.623709,13.3703518 193.073805,13.3703518 190.859656,13.3703518 L189.235946,13.3703518 L189.235946,15.0693467 L189.235946,20.018593 L189.235946,23.7859296 L190.121606,23.7859296 C191.154876,23.7859296 192.40956,23.7859296 193.88566,23.7120603 C195.361759,23.638191 196.985468,23.5643216 198.682983,23.4165829 L198.682983,23.9336683 L198.682983,24.4507538 L198.682983,24.9678392 L198.682983,25.4849246 C198.018738,25.4849246 197.280688,25.4110553 196.395029,25.4110553 L192.55717,25.4110553 L188.497897,25.4110553 C187.538432,25.558794 186.726577,25.558794 185.914723,25.558794 L185.914723,25.558794 Z" id="Shape"></path>
                            <path d="M201.930402,24.1552764 C202.151816,23.4904523 202.299426,22.8994975 202.447036,22.2346734 C202.594646,21.5698492 202.668451,20.9788945 202.742256,20.3140704 C203.258891,21.6437186 204.070746,22.6778894 205.104015,23.4904523 C206.137285,24.3030151 207.318164,24.5984925 208.646654,24.5984925 C210.196558,24.5984925 211.451243,24.1552764 212.336902,23.1949749 C213.296367,22.2346734 213.739197,20.9788945 213.739197,19.3537688 C213.739197,18.2457286 213.443977,17.3592965 212.927342,16.6944724 C212.410707,16.0296482 211.451243,15.4386935 210.122753,14.8477387 L207.244359,13.5919598 C205.62065,12.9271357 204.365966,12.1145729 203.627916,11.1542714 C202.889866,10.1939698 202.520841,9.0120603 202.520841,7.60854271 C202.520841,5.61407035 203.185086,3.91507538 204.58738,2.65929648 C205.989675,1.40351759 207.834799,0.738693467 210.048948,0.738693467 C211.008413,0.738693467 211.967878,0.812562814 212.853537,1.03417085 C213.739197,1.25577889 214.624857,1.55125628 215.510516,1.99447236 C215.362906,2.3638191 215.141491,2.80703518 214.993881,3.25025126 C214.846272,3.69346734 214.698662,4.21055276 214.477247,4.72763819 C213.813002,3.84120603 213.148757,3.10251256 212.263098,2.65929648 C211.451243,2.2160804 210.491778,1.99447236 209.532314,1.99447236 C208.203824,1.99447236 207.170554,2.3638191 206.3587,3.17638191 C205.62065,3.98894472 205.17782,5.02311558 205.17782,6.42663317 C205.17782,7.46080402 205.47304,8.27336683 205.989675,8.93819095 C206.50631,9.60301508 207.465774,10.1939698 208.794264,10.7849246 L211.672658,12.0407035 C213.370172,12.779397 214.624857,13.5919598 215.289101,14.5522613 C216.027151,15.5125628 216.396176,16.7683417 216.396176,18.2457286 C216.396176,20.5356784 215.584321,22.4562814 214.034417,23.859799 C212.484512,25.2633166 210.417973,26.0020101 207.834799,26.0020101 C206.65392,26.0020101 205.546845,25.8542714 204.513576,25.4849246 C203.701721,25.1894472 202.742256,24.7462312 201.930402,24.1552764 L201.930402,24.1552764 Z" id="Shape"></path>
                            <path d="M221.267304,25.558794 C221.341109,24.3768844 221.414914,23.1211055 221.414914,21.6437186 C221.414914,20.240201 221.488719,18.4673367 221.488719,16.3251256 L221.488719,13.3703518 C221.488719,9.52914573 221.488719,6.86984925 221.414914,5.24472362 C221.414914,3.61959799 221.341109,2.28994975 221.267304,1.1080402 C221.488719,1.18190955 221.783939,1.18190955 222.005354,1.18190955 L222.891013,1.18190955 L223.776673,1.18190955 C224.071893,1.18190955 224.293308,1.1080402 224.588528,1.1080402 C224.514723,1.92060302 224.440918,2.88090452 224.440918,3.91507538 C224.440918,5.02311558 224.367113,6.42663317 224.367113,8.12562814 L224.367113,13.3703518 L224.367113,19.2798995 C224.367113,21.2005025 224.367113,22.5301508 224.440918,23.3427136 C224.440918,24.1552764 224.514723,24.8939698 224.588528,25.558794 C224.367113,25.4849246 224.071893,25.4849246 223.776673,25.4849246 L222.891013,25.4849246 L222.005354,25.4849246 C221.857744,25.4849246 221.562524,25.4849246 221.267304,25.558794 L221.267304,25.558794 Z" id="Shape"></path>
                            <path d="M252.191587,24.5246231 C250.494073,25.0417085 248.870363,25.4110553 247.246654,25.6326633 C245.622945,25.8542714 244.07304,26.0020101 242.670746,26.0020101 C238.537667,26.0020101 235.290249,24.8939698 232.928489,22.6778894 C230.56673,20.461809 229.312046,17.4331658 229.312046,13.6658291 C229.312046,9.67688442 230.56673,6.50050251 233.149904,4.13668342 C235.733078,1.77286432 239.128107,0.590954774 243.4826,0.590954774 C245.180115,0.590954774 246.803824,0.812562814 248.279924,1.18190955 C249.756023,1.55125628 251.084512,2.14221106 252.265392,2.88090452 C252.043977,3.39798995 251.896367,3.98894472 251.748757,4.50603015 C251.601147,5.02311558 251.453537,5.54020101 251.379732,6.05728643 C250.420268,4.65376884 249.239388,3.61959799 247.837094,2.95477387 C246.434799,2.28994975 244.737285,1.92060302 242.818356,1.92060302 C239.792352,1.92060302 237.356788,2.95477387 235.511663,5.02311558 C233.666539,7.09145729 232.78088,9.89849246 232.78088,13.2964824 C232.78088,16.6944724 233.740344,19.4276382 235.659273,21.4959799 C237.578203,23.5643216 240.087572,24.5984925 243.261185,24.5984925 C244.294455,24.5984925 245.25392,24.5246231 246.213384,24.3030151 C247.172849,24.081407 248.132314,23.7859296 249.091778,23.3427136 C249.091778,23.1211055 249.091778,22.6040201 249.165583,21.7914573 C249.165583,20.9788945 249.239388,20.3140704 249.239388,19.8708543 L249.239388,18.0241206 C249.239388,17.3592965 249.165583,16.4728643 249.165583,15.2909548 C249.608413,15.3648241 249.903633,15.3648241 250.051243,15.4386935 C250.198853,15.5125628 250.420268,15.4386935 250.641683,15.5125628 C250.789293,15.5125628 251.010707,15.5125628 251.232122,15.4386935 C251.453537,15.3648241 251.748757,15.3648241 252.117782,15.2909548 C252.117782,16.5467337 252.043977,17.6547739 252.043977,18.6150754 L252.043977,20.9050251 L252.043977,22.8256281 C252.117782,23.4904523 252.117782,24.0075377 252.191587,24.5246231 L252.191587,24.5246231 Z" id="Shape"></path>
                            <path d="M256.915105,25.558794 C257.062715,22.3085427 257.210325,18.9844221 257.28413,15.4386935 C257.357935,11.8929648 257.43174,8.27336683 257.43174,4.4321608 L257.43174,0.664824121 L258.095985,0.664824121 C260.679159,3.61959799 263.336138,6.64824121 266.140727,9.60301508 C268.945315,12.5577889 272.118929,15.8819095 275.661568,19.5015075 L275.661568,18.9844221 C275.735373,17.7286432 275.735373,16.9160804 275.735373,16.398995 C275.735373,13.5180905 275.735373,10.7849246 275.661568,8.19949749 C275.587763,5.61407035 275.513958,3.25025126 275.440153,1.18190955 C275.735373,1.25577889 276.030593,1.25577889 276.178203,1.25577889 L276.621033,1.25577889 L277.063862,1.25577889 C277.211472,1.25577889 277.432887,1.18190955 277.728107,1.18190955 C277.654302,3.91507538 277.580497,6.64824121 277.506692,9.45527638 C277.432887,12.2623116 277.432887,15.0693467 277.432887,17.9502513 L277.432887,21.3482412 C277.432887,22.5301508 277.432887,24.1552764 277.506692,26.0758794 L277.063862,26.0758794 C275.956788,24.7462312 274.702103,23.1949749 273.152199,21.4959799 C271.676099,19.7969849 269.90478,17.9502513 267.912046,15.8080402 L259.203059,6.64824121 C259.203059,6.94371859 259.203059,7.60854271 259.129254,8.71658291 C259.129254,9.82462312 259.055449,10.7110553 259.055449,11.3758794 C259.055449,12.8532663 259.055449,14.7 259.129254,16.9899497 C259.203059,19.2798995 259.276864,22.160804 259.350669,25.6326633 C259.129254,25.558794 258.907839,25.558794 258.686424,25.4849246 C258.46501,25.4849246 258.3174,25.4110553 258.095985,25.4110553 C257.87457,25.4110553 257.72696,25.4110553 257.505545,25.4849246 C257.43174,25.4849246 257.210325,25.4849246 256.915105,25.558794 L256.915105,25.558794 Z" id="Shape"></path>
                        </g>
                        <path d="M221.488719,15.0693467 C225.252772,16.8422111 222.152964,73.721608 184.291013,84.7281407 C147.019503,95.5130653 114.250096,50.7482412 116.316635,47.4241206 C118.087954,44.5432161 146.724283,71.4316583 176.615296,63.0844221 C207.760994,54.2939698 218.167495,13.5180905 221.488719,15.0693467 L221.488719,15.0693467 Z" id="XMLID_2_" fill="#EF4136" opacity="0.42"></path>
                        <path d="M198.535373,23.9336683 C201.782792,25.9281407 195.952199,55.4758794 175.065392,65.4482412 C148.495602,78.0798995 115.20956,50.6743719 116.316635,47.5718593 C117.276099,44.9864322 141.115105,59.6864322 166.356405,50.1572864 C187.686042,42.179397 195.656979,22.2346734 198.535373,23.9336683 L198.535373,23.9336683 Z" id="XMLID_3_" fill="#EF4136" opacity="0.42"></path>
                        <path d="M247.689484,0.590954774 C252.117782,2.51155779 248.279924,83.6201005 197.428298,95.2914573 C152.407266,105.559296 113.659656,51.4130653 116.316635,47.4241206 C118.604589,43.9522613 152.554876,77.5628141 188.571702,68.4768844 C229.902486,57.9874372 243.77782,-1.1080402 247.689484,0.590954774 L247.689484,0.590954774 Z" id="XMLID_1_" fill="#EF4136" opacity="0.42"></path>
                        <path d="M129.380115,81.0346734 L35.1311663,81.0346734 C15.499044,81.9949749 0.442829828,97.359799 0.738049713,114.719095 C1.0332696,130.674874 14.2443595,144.71005 31.9575526,147 L353.009178,147 C371.534226,145.89196 385.926195,131.11809 385.483365,113.758794 C385.040535,96.3256281 369.615296,82.2165829 351.016444,82.1427136 L232.928489,82.1427136" id="XMLID_7_" stroke="#E6E7E8" stroke-width="1.936"></path>
                    </g>
                </g>
            </g>
        </g>
    </g>
</svg>