<?xml version="1.0" encoding="utf-8"?>
<!-- Generator: Adobe Illustrator 21.0.0, SVG Export Plug-In . SVG Version: 6.00 Build 0)  -->
<svg version="1.1" id="Layer_1" xmlns="http://www.w3.org/2000/svg" xmlns:xlink="http://www.w3.org/1999/xlink" x="0px" y="0px"
	 viewBox="0 0 618 172.7" style="enable-background:new 0 0 618 172.7;" xml:space="preserve">
<style type="text/css">
	.st0{fill:#808285;}
	.st1{fill:#EF4136;}
	.st2{opacity:0.42;fill:#EF4136;}
</style>
<g>
	<path class="st0" d="M222.3,86.8c0.3-0.9,0.5-1.7,0.7-2.6c0.2-0.9,0.3-1.7,0.4-2.6c0.7,1.8,1.8,3.2,3.2,4.3c1.4,1,3,1.5,4.8,1.5
		c2.1,0,3.8-0.6,5-1.9c1.3-1.3,1.9-3,1.9-5.2c0-1.5-0.4-2.7-1.1-3.6s-2-1.7-3.8-2.5l-3.9-1.7c-2.2-0.9-3.9-2-4.9-3.3
		c-1-1.3-1.5-2.9-1.5-4.8c0-2.7,0.9-5,2.8-6.7c1.9-1.7,4.4-2.6,7.4-2.6c1.3,0,2.6,0.1,3.8,0.4s2.4,0.7,3.6,1.3
		c-0.2,0.5-0.5,1.1-0.7,1.7c-0.2,0.6-0.4,1.3-0.7,2c-0.9-1.2-1.8-2.2-3-2.8c-1.1-0.6-2.4-0.9-3.7-0.9c-1.8,0-3.2,0.5-4.3,1.6
		c-1.1,1.1-1.6,2.5-1.6,4.4c0,1.4,0.4,2.5,1.1,3.4c0.8,0.9,2,1.7,3.8,2.5l3.9,1.7c2.3,1,4,2.1,4.9,3.4c1,1.3,1.5,3,1.5,5
		c0,3.1-1.1,5.7-3.2,7.6s-4.9,2.9-8.4,2.9c-1.6,0-3.1-0.2-4.5-0.7C224.6,88.3,223.4,87.7,222.3,86.8z"/>
	<path class="st0" d="M245.8,88.8c0.6-2.7,1.3-6.5,2-11.6s1.7-12.5,3-22.1h0.8c2.9,5.7,5.4,10.7,7.5,14.9c2.1,4.2,4.2,8,6.1,11.5
		c2.1-3.7,4.3-7.8,6.7-12c2.3-4.3,4.9-9.1,7.7-14.3h0.6c0.4,4.3,1,9,1.6,14.2c0.6,5.2,1.3,11.7,2.3,19.5c-0.4-0.1-0.8-0.1-1.1-0.2
		c-0.4,0-0.7-0.1-1.1-0.1c-0.3,0-0.7,0-1,0.1c-0.4,0-0.7,0.1-1.1,0.2c-0.4-5.7-0.8-10.7-1.3-15c-0.5-4.3-0.9-7.4-1.2-9.2
		c-3,5-5.6,9.7-7.8,14c-2.2,4.3-3.7,7.7-4.6,10.2H264c-0.4-1.3-0.9-2.7-1.6-4.2s-1.7-3.5-3-5.9l-7.6-14c-0.7,5.2-1.3,9.9-1.7,14.1
		c-0.4,4.2-0.6,7.5-0.7,10.1c-0.3-0.1-0.6-0.1-0.9-0.2c-0.3,0-0.6-0.1-0.9-0.1s-0.6,0-0.9,0.1C246.5,88.6,246.1,88.7,245.8,88.8z"/>
	<path class="st0" d="M291,88.8c0.1-1.6,0.2-3.3,0.2-5.3s0.1-4.3,0.1-7.2v-4c0-5.2,0-8.8-0.1-11s-0.1-4-0.2-5.6
		c0.3,0.1,0.7,0.1,1,0.1c0.4,0,0.7,0,1.2,0s0.8,0,1.2,0c0.4,0,0.7-0.1,1.1-0.1c-0.1,1.1-0.2,2.4-0.2,3.8c0,1.5-0.1,3.4-0.1,5.7v7.1
		v8c0,2.6,0,4.4,0.1,5.5c0,1.1,0.1,2.1,0.2,3c-0.3-0.1-0.7-0.1-1.1-0.1c-0.4,0-0.8,0-1.2,0c-0.4,0-0.8,0-1.2,0
		C291.8,88.7,291.4,88.7,291,88.8z"/>
	<path class="st0" d="M304.3,88.8c0.1-2.8,0.1-5.6,0.2-8.4c0.1-2.7,0.1-5.5,0.1-8.2c0-3,0-5.9-0.1-8.6c0-2.7-0.1-5.4-0.2-8
		c0.4,0.1,0.7,0.1,1.1,0.1c0.4,0,0.8,0,1.2,0c0.4,0,0.8,0,1.2,0c0.4,0,0.7-0.1,1.1-0.1c-0.1,3.2-0.2,6.2-0.3,9.1
		c-0.1,2.9-0.1,5.6-0.1,8.1c0,2.6,0,5,0.1,7.2c0,2.2,0.1,4.4,0.2,6.4c0.3,0,0.7,0,1.2,0c0.4,0,1.1,0,2.1,0c2.1,0,4-0.1,5.6-0.2
		c1.6-0.1,3.1-0.3,4.3-0.6c0,0.1,0,0.4,0,0.7c0,0.3,0,0.6,0,0.8c0,0.1,0,0.4,0,0.7c0,0.3,0,0.6,0,0.8c-2.9,0-5.2-0.1-7.1-0.1
		s-3.2,0-4.1,0c-1.2,0-2.3,0-3.3,0C306.3,88.7,305.3,88.7,304.3,88.8z"/>
	<path class="st0" d="M328,88.8c0.2-2,0.3-4.4,0.3-7.1c0.1-2.7,0.1-6,0.1-9.8c0-3.5,0-6.6-0.1-9.2c-0.1-2.6-0.2-5-0.3-7
		c0.7,0,1.4,0.1,2.2,0.1c0.8,0,2.1,0,3.8,0c2.2,0,4.2,0,5.9,0s3.5,0,5.2-0.1c0,0.1,0,0.4,0,0.7c0,0.3,0,0.6,0,0.7c0,0.1,0,0.4,0,0.7
		c0,0.3,0,0.6,0,0.7c-1.8-0.2-3.7-0.3-5.6-0.4s-3.9-0.1-5.9-0.1h-1.2c0,1.9,0,3.7,0,5.4c0,1.7,0,3.3,0,4.9v1.9h0.9
		c1.5,0,3.1,0,4.9-0.1s3.7-0.2,5.7-0.3c0,0.3-0.1,0.6-0.1,0.9c0,0.2,0,0.4,0,0.6c0,0.2,0,0.4,0,0.6c0,0.2,0,0.5,0.1,0.8
		c-0.8-0.1-1.7-0.2-2.9-0.3c-1.2-0.1-3.3-0.1-6.3-0.1h-2.2v2.3c0,2.8,0,5,0,6.7c0,1.7,0,3.4,0,5.1h1.2c1.4,0,3.1,0,5.1-0.1
		s4.2-0.2,6.5-0.4c0,0.2,0,0.4,0,0.7c0,0.3,0,0.6,0,0.7c0,0.2,0,0.4,0,0.7c0,0.3,0,0.6,0,0.7c-0.9,0-1.9-0.1-3.1-0.1
		c-1.1,0-2.9,0-5.2,0c-2.4,0-4.2,0-5.5,0C330.3,88.7,329.1,88.7,328,88.8z"/>
	<path class="st0" d="M349.8,86.8c0.3-0.9,0.5-1.7,0.7-2.6c0.2-0.9,0.3-1.7,0.4-2.6c0.7,1.8,1.8,3.2,3.2,4.3c1.4,1,3,1.5,4.8,1.5
		c2.1,0,3.8-0.6,5-1.9c1.3-1.3,1.9-3,1.9-5.2c0-1.5-0.4-2.7-1.1-3.6s-2-1.7-3.8-2.5l-3.9-1.7c-2.2-0.9-3.9-2-4.9-3.3
		c-1-1.3-1.5-2.9-1.5-4.8c0-2.7,0.9-5,2.8-6.7c1.9-1.7,4.4-2.6,7.4-2.6c1.3,0,2.6,0.1,3.8,0.4s2.4,0.7,3.6,1.3
		c-0.2,0.5-0.5,1.1-0.7,1.7c-0.2,0.6-0.4,1.3-0.7,2c-0.9-1.2-1.8-2.2-3-2.8c-1.1-0.6-2.4-0.9-3.7-0.9c-1.8,0-3.2,0.5-4.3,1.6
		c-1.1,1.1-1.6,2.5-1.6,4.4c0,1.4,0.4,2.5,1.1,3.4c0.8,0.9,2,1.7,3.8,2.5l3.9,1.7c2.3,1,4,2.1,4.9,3.4c1,1.3,1.5,3,1.5,5
		c0,3.1-1.1,5.7-3.2,7.6s-4.9,2.9-8.4,2.9c-1.6,0-3.1-0.2-4.5-0.7C352.1,88.3,350.9,87.7,349.8,86.8z"/>
	<path class="st0" d="M387.3,88.8c0-0.9,0.1-1.9,0.1-3c0-1.1,0-3,0-5.5v-5v-4.7c0-2.2,0-3.8,0-4.8c0-1,0-1.8-0.1-2.5
		c0.2,0,0.5,0.1,0.7,0.1c0.2,0,0.5,0,0.8,0c0.3,0,0.5,0,0.7,0s0.5-0.1,0.7-0.1c-0.1,1.7-0.2,3.2-0.2,4.7c0,1.5-0.1,2.9-0.1,4.3
		c0,0.3,0,0.9,0,1.6c0,0.7,0,1.3,0,1.7c0.7-1.1,1.5-1.8,2.4-2.3s1.9-0.7,3.1-0.7c2.1,0,3.8,0.7,5,2.1c1.2,1.4,1.9,3.3,1.9,5.6
		c0,2.7-0.7,4.8-2.1,6.5c-1.4,1.6-3.2,2.5-5.4,2.5c-0.9,0-1.8-0.2-2.6-0.5c-0.8-0.3-1.6-0.9-2.4-1.6c-0.3,0.2-0.6,0.5-0.9,0.8
		c-0.3,0.3-0.6,0.6-0.9,1H387.3z M394.7,73.8c-1.6,0-2.8,0.7-3.7,2s-1.3,3.2-1.3,5.7c0,2.1,0.4,3.7,1.2,4.8c0.8,1.1,1.9,1.6,3.5,1.6
		c1.6,0,2.9-0.7,3.8-2c0.9-1.3,1.3-3.2,1.3-5.6c0-2.1-0.4-3.8-1.2-4.8C397.4,74.3,396.2,73.8,394.7,73.8z"/>
	<path class="st0" d="M406.1,98c1.1-1.8,2.2-4.2,3.5-7c0.1-0.3,0.2-0.4,0.2-0.6l0.8-1.8l-1.4-3.7c-0.3-0.8-0.9-2.3-1.9-4.6
		c-1-2.3-2.1-4.8-3.4-7.6c0.3,0.1,0.5,0.1,0.8,0.1c0.3,0,0.6,0,0.9,0c0.3,0,0.6,0,0.9,0c0.3,0,0.5-0.1,0.8-0.1
		c0.3,1,0.8,2.4,1.4,4.1c0.6,1.7,1.4,3.6,2.3,5.8l1.2,2.9l1.2-2.8c0.8-1.9,1.6-3.7,2.2-5.4s1.2-3.2,1.6-4.6c0.2,0,0.3,0.1,0.5,0.1
		c0.2,0,0.4,0,0.6,0c0.2,0,0.4,0,0.6,0c0.2,0,0.4-0.1,0.5-0.1c-0.4,0.9-0.9,1.8-1.4,2.9c-0.5,1.1-1.1,2.5-1.8,4.1L411.5,90
		c-1,2.3-1.7,4-2.1,5.1c-0.4,1.1-0.7,2.1-0.9,2.9c-0.2,0-0.4-0.1-0.6-0.1c-0.2,0-0.4,0-0.6,0c-0.2,0-0.4,0-0.6,0
		C406.5,98,406.3,98,406.1,98z"/>
	<path class="st0" d="M437,88.8c0.1-1.8,0.1-3.9,0.2-6.1c0-2.2,0-5.7,0-10.4c0-4.9,0-8.4,0-10.6c0-2.2-0.1-4.2-0.1-6
		c0.8,0,1.4,0.1,2,0.1c0.6,0,1.1,0,1.6,0c0.6,0,2,0,4.1-0.1c2.1-0.1,3.9-0.1,5.3-0.1c2.8,0,5,0.2,6.6,0.5c1.6,0.4,3,1,4.3,1.8
		c2,1.4,3.5,3.2,4.6,5.5c1.1,2.3,1.6,4.9,1.6,7.9c0,5.7-1.6,10.1-4.9,13.1c-3.3,3-8,4.5-14.2,4.5c-0.7,0-1.9,0-3.5-0.1
		s-2.8-0.1-3.6-0.1c-0.3,0-0.8,0-1.7,0C438.3,88.7,437.5,88.7,437,88.8z M441.4,86.7c1,0.1,2,0.1,2.8,0.2c0.8,0,1.6,0.1,2.3,0.1
		c5.4,0,9.3-1.2,12-3.7c2.6-2.4,3.9-6.1,3.9-11.1c0-5.2-1.1-8.9-3.2-11.3c-2.1-2.3-5.6-3.5-10.5-3.5c-1.3,0-2.6,0-3.8,0.1
		c-1.2,0-2.3,0.1-3.5,0.2c-0.1,2-0.1,4.1-0.2,6.3c0,2.2,0,4.5,0,7c0,3,0,5.8,0,8.4C441.2,81.9,441.3,84.4,441.4,86.7z"/>
	<path class="st0" d="M473.6,88.8c0.2-2,0.3-4.4,0.3-7.1c0.1-2.7,0.1-6,0.1-9.8c0-3.5,0-6.6-0.1-9.2c-0.1-2.6-0.2-5-0.3-7
		c0.7,0,1.4,0.1,2.2,0.1s2.1,0,3.8,0c2.2,0,4.2,0,5.9,0c1.7,0,3.5,0,5.2-0.1c0,0.1,0,0.4,0,0.7c0,0.3,0,0.6,0,0.7c0,0.1,0,0.4,0,0.7
		c0,0.3,0,0.6,0,0.7c-1.8-0.2-3.7-0.3-5.6-0.4s-3.9-0.1-5.9-0.1H478c0,1.9,0,3.7,0,5.4c0,1.7,0,3.3,0,4.9v1.9h0.9
		c1.5,0,3.1,0,4.9-0.1s3.7-0.2,5.7-0.3c0,0.3-0.1,0.6-0.1,0.9c0,0.2,0,0.4,0,0.6c0,0.2,0,0.4,0,0.6c0,0.2,0,0.5,0.1,0.8
		c-0.8-0.1-1.7-0.2-2.9-0.3s-3.3-0.1-6.3-0.1H478v2.3c0,2.8,0,5,0,6.7s0,3.4,0,5.1h1.2c1.4,0,3.1,0,5.1-0.1c2-0.1,4.2-0.2,6.5-0.4
		c0,0.2,0,0.4,0,0.7c0,0.3,0,0.6,0,0.7c0,0.2,0,0.4,0,0.7c0,0.3,0,0.6,0,0.7c-0.9,0-1.9-0.1-3.1-0.1c-1.1,0-2.9,0-5.2,0
		c-2.4,0-4.2,0-5.5,0C475.8,88.7,474.7,88.7,473.6,88.8z"/>
	<path class="st0" d="M495.3,86.8c0.3-0.9,0.5-1.7,0.7-2.6c0.2-0.9,0.3-1.7,0.4-2.6c0.7,1.8,1.8,3.2,3.2,4.3s3,1.5,4.8,1.5
		c2.1,0,3.8-0.6,5-1.9c1.3-1.3,1.9-3,1.9-5.2c0-1.5-0.4-2.7-1.1-3.6c-0.7-0.9-2-1.7-3.8-2.5l-3.9-1.7c-2.2-0.9-3.9-2-4.9-3.3
		c-1-1.3-1.5-2.9-1.5-4.8c0-2.7,0.9-5,2.8-6.7c1.9-1.7,4.4-2.6,7.4-2.6c1.3,0,2.6,0.1,3.8,0.4c1.2,0.3,2.4,0.7,3.6,1.3
		c-0.2,0.5-0.5,1.1-0.7,1.7c-0.2,0.6-0.4,1.3-0.7,2c-0.9-1.2-1.8-2.2-3-2.8c-1.1-0.6-2.4-0.9-3.7-0.9c-1.8,0-3.2,0.5-4.3,1.6
		c-1,1.1-1.6,2.5-1.6,4.4c0,1.4,0.4,2.5,1.1,3.4s2,1.7,3.8,2.5l3.9,1.7c2.3,1,4,2.1,4.9,3.4c1,1.3,1.5,3,1.5,5
		c0,3.1-1.1,5.7-3.2,7.6s-4.9,2.9-8.4,2.9c-1.6,0-3.1-0.2-4.5-0.7C497.7,88.3,496.4,87.7,495.3,86.8z"/>
	<path class="st0" d="M521.5,88.8c0.1-1.6,0.2-3.3,0.2-5.3c0-1.9,0.1-4.3,0.1-7.2v-4c0-5.2,0-8.8-0.1-11c0-2.2-0.1-4-0.2-5.6
		c0.3,0.1,0.7,0.1,1,0.1c0.4,0,0.7,0,1.2,0s0.8,0,1.2,0c0.4,0,0.7-0.1,1.1-0.1c-0.1,1.1-0.2,2.4-0.2,3.8c0,1.5-0.1,3.4-0.1,5.7v7.1
		v8c0,2.6,0,4.4,0.1,5.5c0,1.1,0.1,2.1,0.2,3c-0.3-0.1-0.7-0.1-1.1-0.1c-0.4,0-0.8,0-1.2,0c-0.4,0-0.8,0-1.2,0
		C522.3,88.7,521.9,88.7,521.5,88.8z"/>
	<path class="st0" d="M563.4,87.3c-2.3,0.7-4.5,1.2-6.7,1.5c-2.2,0.3-4.3,0.5-6.2,0.5c-5.6,0-10-1.5-13.2-4.5
		c-3.2-3-4.9-7.1-4.9-12.2c0-5.4,1.7-9.7,5.2-12.9c3.5-3.2,8.1-4.8,14-4.8c2.3,0,4.5,0.3,6.5,0.8c2,0.5,3.8,1.3,5.4,2.3
		c-0.3,0.7-0.5,1.5-0.7,2.2c-0.2,0.7-0.4,1.4-0.5,2.1c-1.3-1.9-2.9-3.3-4.8-4.2c-1.9-0.9-4.2-1.4-6.8-1.4c-4.1,0-7.4,1.4-9.9,4.2
		c-2.5,2.8-3.7,6.6-3.7,11.2c0,4.6,1.3,8.3,3.9,11.1s6,4.2,10.3,4.2c1.4,0,2.7-0.1,4-0.4s2.6-0.7,3.9-1.3c0-0.3,0-1,0.1-2.1
		c0-1.1,0.1-2,0.1-2.6c0-0.8,0-1.6,0-2.5c0-0.9-0.1-2.1-0.1-3.7c0.6,0.1,1,0.1,1.2,0.2s0.5,0,0.8,0.1c0.2,0,0.5,0,0.8-0.1
		s0.7-0.1,1.2-0.2c0,1.7-0.1,3.2-0.1,4.5c0,1.3,0,2.3,0,3.1c0,0.9,0,1.8,0,2.6C563.3,85.9,563.3,86.7,563.4,87.3z"/>
	<path class="st0" d="M569.8,88.7c0.2-4.4,0.4-8.9,0.5-13.7c0.1-4.8,0.2-9.7,0.2-14.9V55h0.9c3.5,4,7.1,8.1,10.9,12.1
		s8.1,8.5,12.9,13.4c0-0.2,0-0.4,0-0.7c0.1-1.7,0.1-2.8,0.1-3.5c0-3.9,0-7.6-0.1-11.1c-0.1-3.5-0.2-6.7-0.3-9.5
		c0.4,0.1,0.8,0.1,1,0.1c0.2,0,0.4,0,0.6,0c0.2,0,0.4,0,0.6,0c0.2,0,0.5-0.1,0.9-0.1c-0.1,3.7-0.2,7.4-0.3,11.2
		c-0.1,3.8-0.1,7.6-0.1,11.5c0,1.4,0,2.9,0,4.6c0,1.6,0,3.8,0.1,6.4H597c-1.5-1.8-3.2-3.9-5.3-6.2c-2-2.3-4.4-4.8-7.1-7.7
		l-11.7-12.4c0,0.4,0,1.3-0.1,2.8c0,1.5-0.1,2.7-0.1,3.6c0,2,0,4.5,0.1,7.6c0.1,3.1,0.2,7,0.3,11.7c-0.3-0.1-0.6-0.1-0.9-0.2
		c-0.3,0-0.5-0.1-0.8-0.1c-0.3,0-0.5,0-0.8,0.1C570.5,88.6,570.2,88.7,569.8,88.7z"/>
</g>
<g>
	<path class="st1" d="M233.2,121.4c0,1.6-0.6,2.9-1.7,3.8c-1.2,0.9-2.7,1.3-4.7,1.3c-2.2,0-3.8-0.3-5-0.8v-2
		c0.7,0.3,1.6,0.6,2.4,0.7c0.9,0.2,1.8,0.3,2.6,0.3c1.4,0,2.5-0.3,3.2-0.8c0.7-0.5,1.1-1.3,1.1-2.2c0-0.6-0.1-1.1-0.4-1.6
		c-0.3-0.4-0.7-0.8-1.3-1.1c-0.6-0.3-1.5-0.7-2.7-1.2c-1.7-0.6-2.9-1.3-3.6-2.2c-0.7-0.8-1.1-1.9-1.1-3.3c0-1.4,0.5-2.5,1.6-3.4
		c1.1-0.8,2.5-1.2,4.2-1.2c1.8,0,3.5,0.3,5,1l-0.7,1.8c-1.5-0.6-3-0.9-4.4-0.9c-1.1,0-2,0.2-2.6,0.7c-0.6,0.5-0.9,1.2-0.9,2
		c0,0.6,0.1,1.1,0.3,1.6c0.2,0.4,0.6,0.8,1.2,1.1c0.6,0.3,1.4,0.7,2.5,1.1c1.9,0.7,3.2,1.4,3.9,2.2
		C232.9,119.1,233.2,120.1,233.2,121.4z"/>
	<path class="st1" d="M241.6,118.6v7.6h-2.1V108h5c2.2,0,3.9,0.4,5,1.3c1.1,0.9,1.6,2.1,1.6,3.9c0,2.4-1.2,4-3.7,4.9l5,8.2h-2.5
		l-4.4-7.6H241.6z M241.6,116.8h2.9c1.5,0,2.6-0.3,3.3-0.9c0.7-0.6,1-1.5,1-2.7c0-1.2-0.4-2.1-1.1-2.6c-0.7-0.5-1.9-0.8-3.4-0.8
		h-2.8V116.8z"/>
	<path class="st1" d="M268,126.2h-10.2V108H268v1.9h-8v5.9h7.6v1.9H260v6.7h8V126.2z"/>
	<path class="st1" d="M284.8,126.2h-10.2V108h10.2v1.9h-8v5.9h7.6v1.9h-7.6v6.7h8V126.2z"/>
	<path class="st1" d="M297.9,131c-0.8,0-1.4-0.1-1.8-0.3v-1.8c0.6,0.2,1.2,0.2,1.8,0.2c0.8,0,1.4-0.2,1.9-0.7
		c0.4-0.5,0.6-1.2,0.6-2.2V108h2.1V126c0,1.6-0.4,2.8-1.2,3.7S299.4,131,297.9,131z"/>
	<path class="st1" d="M309.3,124.9c0-0.6,0.1-1,0.4-1.3c0.3-0.3,0.6-0.4,1.1-0.4c0.5,0,0.9,0.1,1.1,0.4c0.3,0.3,0.4,0.7,0.4,1.3
		c0,0.5-0.1,1-0.4,1.2c-0.3,0.3-0.6,0.4-1.1,0.4c-0.4,0-0.8-0.1-1.1-0.4C309.4,125.9,309.3,125.5,309.3,124.9z"/>
	<path class="st1" d="M330.6,118.6v7.6h-2.1V108h5c2.2,0,3.9,0.4,5,1.3c1.1,0.9,1.6,2.1,1.6,3.9c0,2.4-1.2,4-3.7,4.9l5,8.2h-2.5
		l-4.4-7.6H330.6z M330.6,116.8h2.9c1.5,0,2.6-0.3,3.3-0.9c0.7-0.6,1-1.5,1-2.7c0-1.2-0.4-2.1-1.1-2.6c-0.7-0.5-1.9-0.8-3.4-0.8
		h-2.8V116.8z"/>
	<path class="st1" d="M358.3,126.2l-2.3-5.8h-7.3l-2.2,5.8h-2.1l7.2-18.3h1.8l7.2,18.3H358.3z M355.3,118.5l-2.1-5.6
		c-0.3-0.7-0.6-1.6-0.8-2.6c-0.2,0.8-0.4,1.7-0.8,2.6l-2.1,5.6H355.3z"/>
	<path class="st1" d="M373.6,126.2l-6.2-16.2h-0.1c0.1,1.3,0.2,2.8,0.2,4.6v11.6h-2V108h3.2l5.8,15h0.1l5.8-15h3.2v18.2h-2.1v-11.7
		c0-1.3,0.1-2.8,0.2-4.4h-0.1l-6.2,16.1H373.6z"/>
	<path class="st1" d="M402.6,126.2l-2.3-5.8H393l-2.2,5.8h-2.1l7.2-18.3h1.8l7.2,18.3H402.6z M399.6,118.5l-2.1-5.6
		c-0.3-0.7-0.6-1.6-0.8-2.6c-0.2,0.8-0.4,1.7-0.8,2.6l-2.1,5.6H399.6z"/>
	<path class="st1" d="M424.1,126.2h-2.4l-10-15.3h-0.1c0.1,1.8,0.2,3.4,0.2,4.9v10.4h-2V108h2.4l9.9,15.2h0.1c0-0.2-0.1-0.9-0.1-2.2
		c-0.1-1.2-0.1-2.1-0.1-2.6V108h2V126.2z"/>
	<path class="st1" d="M433.5,123.2l0.2,0.3c-0.2,0.8-0.5,1.8-0.9,2.9c-0.4,1.1-0.8,2.1-1.3,3.1h-1.6c0.2-0.9,0.5-1.9,0.7-3.2
		c0.3-1.3,0.5-2.3,0.6-3.1H433.5z"/>
	<path class="st1" d="M464.2,116.9c0,3-0.8,5.3-2.5,6.9c-1.6,1.6-4,2.4-7.1,2.4h-5V108h5.6c2.8,0,5,0.8,6.6,2.4
		C463.4,111.9,464.2,114.1,464.2,116.9z M461.9,117c0-2.4-0.6-4.2-1.8-5.4c-1.2-1.2-3-1.8-5.3-1.8h-3.1v14.6h2.6
		c2.5,0,4.4-0.6,5.7-1.9C461.3,121.3,461.9,119.4,461.9,117z"/>
	<path class="st1" d="M478.9,126.2l-6.2-16.2h-0.1c0.1,1.3,0.2,2.8,0.2,4.6v11.6h-2V108h3.2l5.8,15h0.1l5.8-15h3.2v18.2h-2.1v-11.7
		c0-1.3,0.1-2.8,0.2-4.4h-0.1l-6.2,16.1H478.9z"/>
	<path class="st1" d="M511,116.9c0,3-0.8,5.3-2.5,6.9c-1.6,1.6-4,2.4-7.1,2.4h-5V108h5.6c2.8,0,5,0.8,6.6,2.4
		C510.2,111.9,511,114.1,511,116.9z M508.7,117c0-2.4-0.6-4.2-1.8-5.4c-1.2-1.2-3-1.8-5.3-1.8h-3.1v14.6h2.6c2.5,0,4.4-0.6,5.7-1.9
		C508.1,121.3,508.7,119.4,508.7,117z"/>
	<path class="st1" d="M519.5,123.2l0.2,0.3c-0.2,0.8-0.5,1.8-0.9,2.9c-0.4,1.1-0.8,2.1-1.3,3.1h-1.6c0.2-0.9,0.5-1.9,0.7-3.2
		c0.3-1.3,0.5-2.3,0.6-3.1H519.5z"/>
	<path class="st1" d="M547.2,113.3c0,1.8-0.6,3.3-1.9,4.3c-1.3,1-3.1,1.5-5.4,1.5h-2.1v7.2h-2.1V108h4.7
		C544.9,108,547.2,109.7,547.2,113.3z M537.7,117.2h1.9c1.9,0,3.2-0.3,4.1-0.9c0.8-0.6,1.3-1.6,1.3-2.9c0-1.2-0.4-2.1-1.2-2.7
		c-0.8-0.6-2-0.9-3.7-0.9h-2.4V117.2z"/>
	<path class="st1" d="M553.5,126.2V108h2.1v16.3h8v1.9H553.5z"/>
	<path class="st1" d="M569.3,126.2V108h2.1v16.3h8v1.9H569.3z"/>
	<path class="st1" d="M592.9,109.6c-2,0-3.6,0.7-4.7,2c-1.2,1.3-1.7,3.2-1.7,5.5c0,2.4,0.6,4.2,1.7,5.5c1.1,1.3,2.7,2,4.8,2
		c1.3,0,2.7-0.2,4.4-0.7v1.9c-1.3,0.5-2.8,0.7-4.7,0.7c-2.7,0-4.8-0.8-6.2-2.4c-1.5-1.6-2.2-3.9-2.2-6.9c0-1.9,0.4-3.5,1.1-4.9
		c0.7-1.4,1.7-2.5,3-3.3c1.3-0.8,2.9-1.1,4.7-1.1c1.9,0,3.6,0.3,5,1l-0.9,1.8C595.7,109.9,594.3,109.6,592.9,109.6z"/>
</g>
<path id="XMLID_2_" class="st2" d="M165,38.7c5.1,2.4,0.9,79.4-50.4,94.3c-50.5,14.6-94.9-46-92.1-50.5c2.4-3.9,41.2,32.5,81.7,21.2
	C146.3,91.8,160.5,36.5,165,38.7z"/>
<path id="XMLID_3_" class="st2" d="M133.8,50.7c4.4,2.7-3.5,42.7-31.8,56.2c-36,17.1-81.1-20-79.6-24.2c1.3-3.5,33.6,16.4,67.8,3.5
	C119.2,75.3,130,48.3,133.8,50.7z"/>
<path id="XMLID_1_" class="st2" d="M200.5,19.1c6,2.6,0.8,112.4-68.1,128.2c-61,13.9-113.5-59.4-109.9-64.8
	c3.1-4.7,49.1,40.8,97.9,28.5C176.4,96.7,195.2,16.7,200.5,19.1z"/>
</svg>
