<?xml version="1.0" encoding="utf-8"?>
<!-- Generator: Adobe Illustrator 21.0.0, SVG Export Plug-In . SVG Version: 6.00 Build 0)  -->
<svg version="1.1" id="Layer_1" xmlns="http://www.w3.org/2000/svg" xmlns:xlink="http://www.w3.org/1999/xlink" x="0px" y="0px"
	 viewBox="0 0 792 612" style="enable-background:new 0 0 792 612;" xml:space="preserve">
<style type="text/css">
	.st0{fill:#FFFFFF;}
	.st1{fill:#808285;}
	.st2{opacity:0.42;fill:#EF4136;}
	.st3{fill:none;stroke:#E6E7E8;stroke-width:1.936;stroke-miterlimit:10;}
</style>
<path id="XMLID_8_" class="st0" d="M441.1,203.4c5.1,2.4,0.9,79.4-50.4,94.3c-50.5,14.6-94.9-46-92.1-50.5
	c2.4-3.9,41.2,32.5,81.7,21.2C422.5,256.5,436.6,201.3,441.1,203.4z"/>
<path id="XMLID_6_" class="st0" d="M410,215.4c4.4,2.7-3.5,42.7-31.8,56.2c-36,17.1-81.1-20-79.6-24.2c1.3-3.5,33.6,16.4,67.8,3.5
	C395.3,240.1,406.1,213.1,410,215.4z"/>
<path id="XMLID_5_" class="st0" d="M476.6,183.8c6,2.6,0.8,112.4-68.1,128.2c-61,13.9-113.5-59.4-109.9-64.8
	c3.1-4.7,49.1,40.8,97.9,28.5C452.5,261.5,471.3,181.5,476.6,183.8z"/>
<g>
	<path class="st1" d="M214.6,352.7c0.3-0.9,0.5-1.7,0.7-2.6c0.2-0.9,0.3-1.7,0.4-2.6c0.7,1.8,1.8,3.2,3.2,4.3c1.4,1,3,1.5,4.8,1.5
		c2.1,0,3.8-0.6,5-1.9c1.3-1.3,1.9-3,1.9-5.2c0-1.5-0.4-2.7-1.1-3.6s-2-1.7-3.8-2.5l-3.9-1.7c-2.2-0.9-3.9-2-4.9-3.3
		c-1-1.3-1.5-2.9-1.5-4.8c0-2.7,0.9-5,2.8-6.7c1.9-1.7,4.4-2.6,7.4-2.6c1.3,0,2.6,0.1,3.8,0.4s2.4,0.7,3.6,1.3
		c-0.2,0.5-0.5,1.1-0.7,1.7c-0.2,0.6-0.4,1.3-0.7,2c-0.9-1.2-1.8-2.2-3-2.8c-1.1-0.6-2.4-0.9-3.7-0.9c-1.8,0-3.2,0.5-4.3,1.6
		c-1.1,1.1-1.6,2.5-1.6,4.4c0,1.4,0.4,2.5,1.1,3.4c0.8,0.9,2,1.7,3.8,2.5l3.9,1.7c2.3,1,4,2.1,4.9,3.4c1,1.3,1.5,3,1.5,5
		c0,3.1-1.1,5.7-3.2,7.6s-4.9,2.9-8.4,2.9c-1.6,0-3.1-0.2-4.5-0.7C216.9,354.1,215.7,353.5,214.6,352.7z"/>
	<path class="st1" d="M238,354.6c0.6-2.7,1.3-6.5,2-11.6s1.7-12.5,3-22.1h0.8c2.9,5.7,5.4,10.7,7.5,14.9c2.1,4.2,4.2,8,6.1,11.5
		c2.1-3.7,4.3-7.8,6.7-12c2.3-4.3,4.9-9.1,7.7-14.3h0.6c0.4,4.3,1,9,1.6,14.2c0.6,5.2,1.3,11.7,2.3,19.5c-0.4-0.1-0.8-0.1-1.1-0.2
		c-0.4,0-0.7-0.1-1.1-0.1c-0.3,0-0.7,0-1,0.1c-0.4,0-0.7,0.1-1.1,0.2c-0.4-5.7-0.8-10.7-1.3-15c-0.5-4.3-0.9-7.4-1.2-9.2
		c-3,5-5.6,9.7-7.8,14c-2.2,4.3-3.7,7.7-4.6,10.2h-0.7c-0.4-1.3-0.9-2.7-1.6-4.2s-1.7-3.5-3-5.9l-7.6-14c-0.7,5.2-1.3,9.9-1.7,14.1
		c-0.4,4.2-0.6,7.5-0.7,10.1c-0.3-0.1-0.6-0.1-0.9-0.2c-0.3,0-0.6-0.1-0.9-0.1s-0.6,0-0.9,0.1C238.8,354.5,238.4,354.5,238,354.6z"
		/>
	<path class="st1" d="M283.3,354.6c0.1-1.6,0.2-3.3,0.2-5.3s0.1-4.3,0.1-7.2v-4c0-5.2,0-8.8-0.1-11s-0.1-4-0.2-5.6
		c0.3,0.1,0.7,0.1,1,0.1c0.4,0,0.7,0,1.2,0s0.8,0,1.2,0c0.4,0,0.7-0.1,1.1-0.1c-0.1,1.1-0.2,2.4-0.2,3.8c0,1.5-0.1,3.4-0.1,5.7v7.1
		v8c0,2.6,0,4.4,0.1,5.5c0,1.1,0.1,2.1,0.2,3c-0.3-0.1-0.7-0.1-1.1-0.1c-0.4,0-0.8,0-1.2,0c-0.4,0-0.8,0-1.2,0
		C284.1,354.5,283.7,354.5,283.3,354.6z"/>
	<path class="st1" d="M296.6,354.6c0.1-2.8,0.1-5.6,0.2-8.4c0.1-2.7,0.1-5.5,0.1-8.2c0-3,0-5.9-0.1-8.6c0-2.7-0.1-5.4-0.2-8
		c0.4,0.1,0.7,0.1,1.1,0.1c0.4,0,0.8,0,1.2,0c0.4,0,0.8,0,1.2,0c0.4,0,0.7-0.1,1.1-0.1c-0.1,3.2-0.2,6.2-0.3,9.1
		c-0.1,2.9-0.1,5.6-0.1,8.1c0,2.6,0,5,0.1,7.2c0,2.2,0.1,4.4,0.2,6.4c0.3,0,0.7,0,1.2,0c0.4,0,1.1,0,2.1,0c2.1,0,4-0.1,5.6-0.2
		c1.6-0.1,3.1-0.3,4.3-0.6c0,0.1,0,0.4,0,0.7c0,0.3,0,0.6,0,0.8c0,0.1,0,0.4,0,0.7c0,0.3,0,0.6,0,0.8c-2.9,0-5.2-0.1-7.1-0.1
		s-3.2,0-4.1,0c-1.2,0-2.3,0-3.3,0C298.6,354.5,297.6,354.6,296.6,354.6z"/>
	<path class="st1" d="M320.3,354.6c0.2-2,0.3-4.4,0.3-7.1c0.1-2.7,0.1-6,0.1-9.8c0-3.5,0-6.6-0.1-9.2c-0.1-2.6-0.2-5-0.3-7
		c0.7,0,1.4,0.1,2.2,0.1c0.8,0,2.1,0,3.8,0c2.2,0,4.2,0,5.9,0s3.5,0,5.2-0.1c0,0.1,0,0.4,0,0.7c0,0.3,0,0.6,0,0.7c0,0.1,0,0.4,0,0.7
		c0,0.3,0,0.6,0,0.7c-1.8-0.2-3.7-0.3-5.6-0.4s-3.9-0.1-5.9-0.1h-1.2c0,1.9,0,3.7,0,5.4c0,1.7,0,3.3,0,4.9v1.9h0.9
		c1.5,0,3.1,0,4.9-0.1s3.7-0.2,5.7-0.3c0,0.3-0.1,0.6-0.1,0.9c0,0.2,0,0.4,0,0.6c0,0.2,0,0.4,0,0.6c0,0.2,0,0.5,0.1,0.8
		c-0.8-0.1-1.7-0.2-2.9-0.3c-1.2-0.1-3.3-0.1-6.3-0.1h-2.2v2.3c0,2.8,0,5,0,6.7c0,1.7,0,3.4,0,5.1h1.2c1.4,0,3.1,0,5.1-0.1
		s4.2-0.2,6.5-0.4c0,0.2,0,0.4,0,0.7c0,0.3,0,0.6,0,0.7c0,0.2,0,0.4,0,0.7c0,0.3,0,0.6,0,0.7c-0.9,0-1.9-0.1-3.1-0.1
		c-1.1,0-2.9,0-5.2,0c-2.4,0-4.2,0-5.5,0C322.6,354.6,321.4,354.6,320.3,354.6z"/>
	<path class="st1" d="M342.1,352.7c0.3-0.9,0.5-1.7,0.7-2.6c0.2-0.9,0.3-1.7,0.4-2.6c0.7,1.8,1.8,3.2,3.2,4.3c1.4,1,3,1.5,4.8,1.5
		c2.1,0,3.8-0.6,5-1.9c1.3-1.3,1.9-3,1.9-5.2c0-1.5-0.4-2.7-1.1-3.6s-2-1.7-3.8-2.5l-3.9-1.7c-2.2-0.9-3.9-2-4.9-3.3
		c-1-1.3-1.5-2.9-1.5-4.8c0-2.7,0.9-5,2.8-6.7c1.9-1.7,4.4-2.6,7.4-2.6c1.3,0,2.6,0.1,3.8,0.4s2.4,0.7,3.6,1.3
		c-0.2,0.5-0.5,1.1-0.7,1.7c-0.2,0.6-0.4,1.3-0.7,2c-0.9-1.2-1.8-2.2-3-2.8c-1.1-0.6-2.4-0.9-3.7-0.9c-1.8,0-3.2,0.5-4.3,1.6
		c-1.1,1.1-1.6,2.5-1.6,4.4c0,1.4,0.4,2.5,1.1,3.4c0.8,0.9,2,1.7,3.8,2.5l3.9,1.7c2.3,1,4,2.1,4.9,3.4c1,1.3,1.5,3,1.5,5
		c0,3.1-1.1,5.7-3.2,7.6s-4.9,2.9-8.4,2.9c-1.6,0-3.1-0.2-4.5-0.7C344.4,354.1,343.2,353.5,342.1,352.7z"/>
	<path class="st1" d="M379.6,354.6c0-0.9,0.1-1.9,0.1-3c0-1.1,0-3,0-5.5v-5v-4.7c0-2.2,0-3.8,0-4.8c0-1,0-1.8-0.1-2.5
		c0.2,0,0.5,0.1,0.7,0.1c0.2,0,0.5,0,0.8,0c0.3,0,0.5,0,0.7,0s0.5-0.1,0.7-0.1c-0.1,1.7-0.2,3.2-0.2,4.7c0,1.5-0.1,2.9-0.1,4.3
		c0,0.3,0,0.9,0,1.6c0,0.7,0,1.3,0,1.7c0.7-1.1,1.5-1.8,2.4-2.3s1.9-0.7,3.1-0.7c2.1,0,3.8,0.7,5,2.1c1.2,1.4,1.9,3.3,1.9,5.6
		c0,2.7-0.7,4.8-2.1,6.5c-1.4,1.6-3.2,2.5-5.4,2.5c-0.9,0-1.8-0.2-2.6-0.5c-0.8-0.3-1.6-0.9-2.4-1.6c-0.3,0.2-0.6,0.5-0.9,0.8
		c-0.3,0.3-0.6,0.6-0.9,1H379.6z M387,339.6c-1.6,0-2.8,0.7-3.7,2s-1.3,3.2-1.3,5.7c0,2.1,0.4,3.7,1.2,4.8c0.8,1.1,1.9,1.6,3.5,1.6
		c1.6,0,2.9-0.7,3.8-2c0.9-1.3,1.3-3.2,1.3-5.6c0-2.1-0.4-3.8-1.2-4.8C389.7,340.2,388.5,339.6,387,339.6z"/>
	<path class="st1" d="M398.4,363.9c1.1-1.8,2.2-4.2,3.5-7c0.1-0.3,0.2-0.4,0.2-0.6l0.8-1.8l-1.4-3.7c-0.3-0.8-0.9-2.3-1.9-4.6
		c-1-2.3-2.1-4.8-3.4-7.6c0.3,0.1,0.5,0.1,0.8,0.1c0.3,0,0.6,0,0.9,0c0.3,0,0.6,0,0.9,0c0.3,0,0.5-0.1,0.8-0.1
		c0.3,1,0.8,2.4,1.4,4.1c0.6,1.7,1.4,3.6,2.3,5.8l1.2,2.9l1.2-2.8c0.8-1.9,1.6-3.7,2.2-5.4s1.2-3.2,1.6-4.6c0.2,0,0.3,0.1,0.5,0.1
		c0.2,0,0.4,0,0.6,0c0.2,0,0.4,0,0.6,0c0.2,0,0.4-0.1,0.5-0.1c-0.4,0.9-0.9,1.8-1.4,2.9c-0.5,1.1-1.1,2.5-1.8,4.1l-4.6,10.3
		c-1,2.3-1.7,4-2.1,5.1c-0.4,1.1-0.7,2.1-0.9,2.9c-0.2,0-0.4-0.1-0.6-0.1c-0.2,0-0.4,0-0.6,0c-0.2,0-0.4,0-0.6,0
		C398.8,363.8,398.6,363.9,398.4,363.9z"/>
	<path class="st1" d="M429.3,354.6c0.1-1.8,0.1-3.9,0.2-6.1c0-2.2,0-5.7,0-10.4c0-4.9,0-8.4,0-10.6c0-2.2-0.1-4.2-0.1-6
		c0.8,0,1.4,0.1,2,0.1c0.6,0,1.1,0,1.6,0c0.6,0,2,0,4.1-0.1c2.1-0.1,3.9-0.1,5.3-0.1c2.8,0,5,0.2,6.6,0.5c1.6,0.4,3,1,4.3,1.8
		c2,1.4,3.5,3.2,4.6,5.5c1.1,2.3,1.6,4.9,1.6,7.9c0,5.7-1.6,10.1-4.9,13.1c-3.3,3-8,4.5-14.2,4.5c-0.7,0-1.9,0-3.5-0.1
		s-2.8-0.1-3.6-0.1c-0.3,0-0.8,0-1.7,0C430.6,354.6,429.8,354.6,429.3,354.6z M433.7,352.5c1,0.1,2,0.1,2.8,0.2
		c0.8,0,1.6,0.1,2.3,0.1c5.4,0,9.3-1.2,12-3.7c2.6-2.4,3.9-6.1,3.9-11.1c0-5.2-1.1-8.9-3.2-11.3c-2.1-2.3-5.6-3.5-10.5-3.5
		c-1.3,0-2.6,0-3.8,0.1c-1.2,0-2.3,0.1-3.5,0.2c-0.1,2-0.1,4.1-0.2,6.3c0,2.2,0,4.5,0,7c0,3,0,5.8,0,8.4
		C433.5,347.8,433.6,350.2,433.7,352.5z"/>
	<path class="st1" d="M465.9,354.6c0.2-2,0.3-4.4,0.3-7.1c0.1-2.7,0.1-6,0.1-9.8c0-3.5,0-6.6-0.1-9.2c-0.1-2.6-0.2-5-0.3-7
		c0.7,0,1.4,0.1,2.2,0.1s2.1,0,3.8,0c2.2,0,4.2,0,5.9,0c1.7,0,3.5,0,5.2-0.1c0,0.1,0,0.4,0,0.7c0,0.3,0,0.6,0,0.7c0,0.1,0,0.4,0,0.7
		c0,0.3,0,0.6,0,0.7c-1.8-0.2-3.7-0.3-5.6-0.4s-3.9-0.1-5.9-0.1h-1.2c0,1.9,0,3.7,0,5.4c0,1.7,0,3.3,0,4.9v1.9h0.9
		c1.5,0,3.1,0,4.9-0.1s3.7-0.2,5.7-0.3c0,0.3-0.1,0.6-0.1,0.9c0,0.2,0,0.4,0,0.6c0,0.2,0,0.4,0,0.6c0,0.2,0,0.5,0.1,0.8
		c-0.8-0.1-1.7-0.2-2.9-0.3s-3.3-0.1-6.3-0.1h-2.2v2.3c0,2.8,0,5,0,6.7s0,3.4,0,5.1h1.2c1.4,0,3.1,0,5.1-0.1c2-0.1,4.2-0.2,6.5-0.4
		c0,0.2,0,0.4,0,0.7c0,0.3,0,0.6,0,0.7c0,0.2,0,0.4,0,0.7c0,0.3,0,0.6,0,0.7c-0.9,0-1.9-0.1-3.1-0.1c-1.1,0-2.9,0-5.2,0
		c-2.4,0-4.2,0-5.5,0C468.1,354.6,467,354.6,465.9,354.6z"/>
	<path class="st1" d="M487.6,352.7c0.3-0.9,0.5-1.7,0.7-2.6c0.2-0.9,0.3-1.7,0.4-2.6c0.7,1.8,1.8,3.2,3.2,4.3s3,1.5,4.8,1.5
		c2.1,0,3.8-0.6,5-1.9c1.3-1.3,1.9-3,1.9-5.2c0-1.5-0.4-2.7-1.1-3.6c-0.7-0.9-2-1.7-3.8-2.5l-3.9-1.7c-2.2-0.9-3.9-2-4.9-3.3
		c-1-1.3-1.5-2.9-1.5-4.8c0-2.7,0.9-5,2.8-6.7c1.9-1.7,4.4-2.6,7.4-2.6c1.3,0,2.6,0.1,3.8,0.4c1.2,0.3,2.4,0.7,3.6,1.3
		c-0.2,0.5-0.5,1.1-0.7,1.7c-0.2,0.6-0.4,1.3-0.7,2c-0.9-1.2-1.8-2.2-3-2.8c-1.1-0.6-2.4-0.9-3.7-0.9c-1.8,0-3.2,0.5-4.3,1.6
		c-1,1.1-1.6,2.5-1.6,4.4c0,1.4,0.4,2.5,1.1,3.4s2,1.7,3.8,2.5l3.9,1.7c2.3,1,4,2.1,4.9,3.4c1,1.3,1.5,3,1.5,5
		c0,3.1-1.1,5.7-3.2,7.6s-4.9,2.9-8.4,2.9c-1.6,0-3.1-0.2-4.5-0.7C490,354.1,488.7,353.5,487.6,352.7z"/>
	<path class="st1" d="M513.8,354.6c0.1-1.6,0.2-3.3,0.2-5.3c0-1.9,0.1-4.3,0.1-7.2v-4c0-5.2,0-8.8-0.1-11c0-2.2-0.1-4-0.2-5.6
		c0.3,0.1,0.7,0.1,1,0.1c0.4,0,0.7,0,1.2,0s0.8,0,1.2,0c0.4,0,0.7-0.1,1.1-0.1c-0.1,1.1-0.2,2.4-0.2,3.8c0,1.5-0.1,3.4-0.1,5.7v7.1
		v8c0,2.6,0,4.4,0.1,5.5c0,1.1,0.1,2.1,0.2,3c-0.3-0.1-0.7-0.1-1.1-0.1c-0.4,0-0.8,0-1.2,0c-0.4,0-0.8,0-1.2,0
		C514.6,354.5,514.2,354.5,513.8,354.6z"/>
	<path class="st1" d="M555.7,353.2c-2.3,0.7-4.5,1.2-6.7,1.5c-2.2,0.3-4.3,0.5-6.2,0.5c-5.6,0-10-1.5-13.2-4.5
		c-3.2-3-4.9-7.1-4.9-12.2c0-5.4,1.7-9.7,5.2-12.9c3.5-3.2,8.1-4.8,14-4.8c2.3,0,4.5,0.3,6.5,0.8c2,0.5,3.8,1.3,5.4,2.3
		c-0.3,0.7-0.5,1.5-0.7,2.2c-0.2,0.7-0.4,1.4-0.5,2.1c-1.3-1.9-2.9-3.3-4.8-4.2c-1.9-0.9-4.2-1.4-6.8-1.4c-4.1,0-7.4,1.4-9.9,4.2
		c-2.5,2.8-3.7,6.6-3.7,11.2c0,4.6,1.3,8.3,3.9,11.1s6,4.2,10.3,4.2c1.4,0,2.7-0.1,4-0.4s2.6-0.7,3.9-1.3c0-0.3,0-1,0.1-2.1
		c0-1.1,0.1-2,0.1-2.6c0-0.8,0-1.6,0-2.5c0-0.9-0.1-2.1-0.1-3.7c0.6,0.1,1,0.1,1.2,0.2s0.5,0,0.8,0.1c0.2,0,0.5,0,0.8-0.1
		s0.7-0.1,1.2-0.2c0,1.7-0.1,3.2-0.1,4.5c0,1.3,0,2.3,0,3.1c0,0.9,0,1.8,0,2.6C555.6,351.8,555.6,352.5,555.7,353.2z"/>
	<path class="st1" d="M562.1,354.6c0.2-4.4,0.4-8.9,0.5-13.7c0.1-4.8,0.2-9.7,0.2-14.9v-5.1h0.9c3.5,4,7.1,8.1,10.9,12.1
		s8.1,8.5,12.9,13.4c0-0.2,0-0.4,0-0.7c0.1-1.7,0.1-2.8,0.1-3.5c0-3.9,0-7.6-0.1-11.1c-0.1-3.5-0.2-6.7-0.3-9.5
		c0.4,0.1,0.8,0.1,1,0.1c0.2,0,0.4,0,0.6,0c0.2,0,0.4,0,0.6,0c0.2,0,0.5-0.1,0.9-0.1c-0.1,3.7-0.2,7.4-0.3,11.2
		c-0.1,3.8-0.1,7.6-0.1,11.5c0,1.4,0,2.9,0,4.6c0,1.6,0,3.8,0.1,6.4h-0.6c-1.5-1.8-3.2-3.9-5.3-6.2c-2-2.3-4.4-4.8-7.1-7.7
		L565.2,329c0,0.4,0,1.3-0.1,2.8c0,1.5-0.1,2.7-0.1,3.6c0,2,0,4.5,0.1,7.6c0.1,3.1,0.2,7,0.3,11.7c-0.3-0.1-0.6-0.1-0.9-0.2
		c-0.3,0-0.5-0.1-0.8-0.1c-0.3,0-0.5,0-0.8,0.1C562.8,354.5,562.5,354.5,562.1,354.6z"/>
</g>
<path id="XMLID_2_" class="st2" d="M441.1,203.4c5.1,2.4,0.9,79.4-50.4,94.3c-50.5,14.6-94.9-46-92.1-50.5
	c2.4-3.9,41.2,32.5,81.7,21.2C422.5,256.5,436.6,201.3,441.1,203.4z"/>
<path id="XMLID_3_" class="st2" d="M410,215.4c4.4,2.7-3.5,42.7-31.8,56.2c-36,17.1-81.1-20-79.6-24.2c1.3-3.5,33.6,16.4,67.8,3.5
	C395.3,240.1,406.1,213.1,410,215.4z"/>
<path id="XMLID_1_" class="st2" d="M476.6,183.8c6,2.6,0.8,112.4-68.1,128.2c-61,13.9-113.5-59.4-109.9-64.8
	c3.1-4.7,49.1,40.8,97.9,28.5C452.5,261.5,471.3,181.5,476.6,183.8z"/>
<path id="XMLID_7_" class="st3" d="M316.3,292.7c-42.6,0-85.1,0-127.7,0c-26.6,1.3-47,22.1-46.6,45.6c0.4,21.6,18.3,40.6,42.3,43.7
	c145,0,290,0,435,0c25.1-1.5,44.6-21.5,44-45c-0.6-23.6-21.5-42.7-46.7-42.8c-53.3,0-106.7,0-160,0"/>
</svg>
